<svg width="1000" height="400" viewBox="0 0 1000 400" xmlns="http://www.w3.org/2000/svg">
    <defs>
        <pattern id="satori_pattern_id_0" x="0" y="0" width="1" height="1" patternUnits="objectBoundingBox">
            <linearGradient id="satori_biid_0" x1="0" y1="0" x2="1" y2="0">
                <stop offset="0%" stop-color="#030711" />
                <stop offset="100%" stop-color="#0f1629" />
            </linearGradient>
            <rect x="0" y="0" width="1000" height="400" fill="url(#satori_biid_0)" />
        </pattern>
    </defs>
    <mask id="satori_om-id">
        <rect x="0" y="0" width="1000" height="400" fill="#fff" />
    </mask>
    <rect x="0" y="0" width="1000" height="400" fill="url(#satori_pattern_id_0)" rx="15px" ry="15px"  />
    <mask id="satori_om-id-0">
        <rect x="48" y="48" width="410" height="274" fill="#fff" />
    </mask>
    <mask id="satori_om-id-0-0">
        <rect x="48" y="88" width="410" height="30" fill="#fff" />
    </mask>
    <path fill="#e1e7ef" d="M57.4 105.4L63.4 95.8L65.7 95.8L65.7 110.2L63.3 110.2L63.3 100.3L58.1 108.7L56.7 108.7L51.6 100.3L51.6 110.2L49.1 110.2L49.1 95.8L51.4 95.8L57.4 105.4ZM80.4 110.2L77.7 110.2L76.6 107.3L70.2 107.3L69.0 110.2L66.3 110.2L72.5 95.8L74.3 95.8L80.4 110.2ZM73.4 99.3L71 105.3L75.8 105.3L73.4 99.3ZM80.9 99.6L80.9 99.6Q80.9 98.7 81.2 98.0Q81.6 97.2 82.2 96.7Q82.9 96.1 83.7 95.8Q84.5 95.5 85.5 95.5L85.5 95.5Q86.5 95.5 87.4 95.8Q88.2 96.1 88.9 96.6Q89.6 97.2 90.0 98.0Q90.4 98.8 90.4 99.7L90.4 99.7L88.0 99.7Q87.9 99.3 87.7 98.9Q87.4 98.5 87.1 98.2Q86.8 98.0 86.3 97.8Q85.9 97.7 85.5 97.7L85.5 97.7Q85.0 97.7 84.6 97.8Q84.2 98.0 83.9 98.2Q83.6 98.5 83.5 98.8Q83.3 99.2 83.3 99.6L83.3 99.6Q83.3 100.0 83.6 100.3Q83.9 100.7 84.4 100.9Q84.9 101.2 85.6 101.4Q86.3 101.6 87.0 101.8L87.0 101.8Q87.8 102.0 88.5 102.3Q89.2 102.7 89.8 103.2Q90.3 103.7 90.6 104.4Q90.9 105.1 90.9 105.9L90.9 105.9Q90.9 106.9 90.5 107.7Q90.1 108.5 89.4 109.1Q88.7 109.8 87.7 110.1Q86.8 110.5 85.7 110.5L85.7 110.5Q84.7 110.5 83.7 110.1Q82.8 109.7 82.1 109.0Q81.4 108.4 80.9 107.5Q80.5 106.6 80.5 105.6L80.5 105.6L83.0 105.6Q83 106.1 83.2 106.6Q83.4 107.1 83.8 107.5Q84.1 107.9 84.6 108.1Q85.1 108.3 85.7 108.3L85.7 108.3Q86.3 108.3 86.8 108.1Q87.3 107.9 87.7 107.6Q88.1 107.3 88.3 106.8Q88.5 106.4 88.5 105.9L88.5 105.9Q88.5 104.9 87.6 104.4Q86.7 103.8 85.2 103.4L85.2 103.4Q84.2 103.2 83.4 102.8Q82.6 102.5 82.1 102.0Q81.5 101.5 81.2 100.9Q80.9 100.3 80.9 99.6ZM92.0 99.6L92.0 99.6Q92.0 98.7 92.3 98.0Q92.7 97.2 93.3 96.7Q93.9 96.1 94.8 95.8Q95.6 95.5 96.6 95.5L96.6 95.5Q97.6 95.5 98.4 95.8Q99.3 96.1 100.0 96.6Q100.6 97.2 101.0 98.0Q101.5 98.8 101.5 99.7L101.5 99.7L99.1 99.7Q99 99.3 98.8 98.9Q98.5 98.5 98.2 98.2Q97.8 98.0 97.4 97.8Q97 97.7 96.6 97.7L96.6 97.7Q96.1 97.7 95.7 97.8Q95.3 98.0 95 98.2Q94.7 98.5 94.5 98.8Q94.4 99.2 94.4 99.6L94.4 99.6Q94.4 100.0 94.7 100.3Q95.0 100.7 95.5 100.9Q96 101.2 96.7 101.4Q97.3 101.6 98.1 101.8L98.1 101.8Q98.9 102.0 99.6 102.3Q100.3 102.7 100.8 103.2Q101.4 103.7 101.7 104.4Q102.0 105.1 102.0 105.9L102.0 105.9Q102.0 106.9 101.6 107.7Q101.2 108.5 100.5 109.1Q99.8 109.8 98.8 110.1Q97.9 110.5 96.8 110.5L96.8 110.5Q95.8 110.5 94.8 110.1Q93.9 109.7 93.2 109.0Q92.4 108.4 92.0 107.5Q91.6 106.6 91.6 105.6L91.6 105.6L94.0 105.6Q94.1 106.1 94.3 106.6Q94.5 107.1 94.9 107.5Q95.2 107.9 95.7 108.1Q96.2 108.3 96.8 108.3L96.8 108.3Q97.4 108.3 97.9 108.1Q98.4 107.9 98.8 107.6Q99.1 107.3 99.4 106.8Q99.6 106.4 99.6 105.9L99.6 105.9Q99.6 104.9 98.7 104.4Q97.8 103.8 96.3 103.4L96.3 103.4Q95.3 103.2 94.5 102.8Q93.7 102.5 93.2 102.0Q92.6 101.5 92.3 100.9Q92.0 100.3 92.0 99.6ZM103.2 110.2L103.2 95.8L105.7 95.8L105.7 110.2L103.2 110.2ZM117.5 95.8L120.2 95.8L114.2 110.2L112.4 110.2L106.4 95.8L109.0 95.8L113.3 106.2L117.5 95.8ZM130.4 110.2L120.9 110.2L120.9 95.8L130.4 95.8L130.4 98.0L123.3 98.0L123.3 101.7L129.3 101.7L129.3 103.9L123.3 103.9L123.3 108.0L130.4 108.0L130.4 110.2Z M145.8 110.2L136.3 110.2L136.3 95.8L145.8 95.8L145.8 98.0L138.8 98.0L138.8 101.7L144.7 101.7L144.7 103.9L138.8 103.9L138.8 108.0L145.8 108.0L145.8 110.2ZM156.5 95.8L159.3 95.8L154.5 102.5L160.1 110.2L157.1 110.2L153.1 104.4L149.1 110.2L146.1 110.2L151.6 102.5L146.9 95.8L149.7 95.8L153.1 100.7L156.5 95.8ZM167.4 104.8L163.2 104.8L163.2 110.2L160.7 110.2L160.7 95.8L167.4 95.8Q168.3 95.8 169.1 96.1Q170.0 96.5 170.6 97.1Q171.2 97.7 171.6 98.5Q171.9 99.3 171.9 100.3L171.9 100.3Q171.9 101.2 171.6 102.0Q171.2 102.8 170.6 103.5Q170.0 104.1 169.1 104.4Q168.3 104.8 167.4 104.8L167.4 104.8ZM163.2 98.0L163.2 102.6L167.1 102.6Q167.6 102.6 168.0 102.4Q168.4 102.2 168.8 101.9Q169.1 101.6 169.3 101.2Q169.5 100.8 169.5 100.3L169.5 100.3Q169.5 99.8 169.3 99.4Q169.1 99.0 168.8 98.6Q168.4 98.3 168.0 98.2Q167.6 98.0 167.1 98.0L167.1 98.0L163.2 98.0ZM182.3 110.2L172.8 110.2L172.8 95.8L182.3 95.8L182.3 98.0L175.3 98.0L175.3 101.7L181.2 101.7L181.2 103.9L175.3 103.9L175.3 108.0L182.3 108.0L182.3 110.2ZM191.6 104.6L195.4 110.2L192.5 110.2L188.9 104.8L186.2 104.8L186.2 110.2L183.7 110.2L183.7 95.8L190.4 95.8Q191.4 95.8 192.2 96.1Q193.0 96.5 193.7 97.1Q194.3 97.7 194.6 98.5Q195 99.3 195 100.3L195 100.3Q195 101.1 194.7 101.8Q194.5 102.5 194.0 103.1Q193.6 103.6 192.9 104.0Q192.3 104.5 191.6 104.6L191.6 104.6ZM186.2 98.0L186.2 102.6L190.2 102.6Q190.6 102.6 191.1 102.4Q191.5 102.2 191.8 101.9Q192.1 101.6 192.3 101.2Q192.5 100.8 192.5 100.3L192.5 100.3Q192.5 99.8 192.3 99.4Q192.1 99.0 191.8 98.6Q191.5 98.3 191.1 98.2Q190.6 98.0 190.2 98.0L190.2 98.0L186.2 98.0ZM196.0 110.2L196.0 95.8L198.5 95.8L198.5 110.2L196.0 110.2ZM208.5 105.4L214.5 95.8L216.8 95.8L216.8 110.2L214.3 110.2L214.3 100.3L209.2 108.7L207.8 108.7L202.7 100.3L202.7 110.2L200.2 110.2L200.2 95.8L202.5 95.8L208.5 105.4ZM228.0 110.2L218.5 110.2L218.5 95.8L228.0 95.8L228.0 98.0L221 98.0L221 101.7L226.9 101.7L226.9 103.9L221 103.9L221 108.0L228.0 108.0L228.0 110.2ZM231.9 110.2L229.4 110.2L229.4 95.8L231.7 95.8L239.4 106.2L239.4 95.8L241.9 95.8L241.9 110.2L239.5 110.2L231.9 99.8L231.9 110.2ZM249.3 98.0L249.3 110.2L246.9 110.2L246.9 98.0L242.6 98.0L242.6 95.8L253.6 95.8L253.6 98.0L249.3 98.0ZM254.3 110.2L254.3 95.8L256.8 95.8L256.8 110.2L254.3 110.2ZM260.9 110.2L258.5 110.2L258.5 95.8L260.8 95.8L268.5 106.2L268.5 95.8L271.0 95.8L271.0 110.2L268.6 110.2L260.9 99.8L260.9 110.2ZM279.4 104.2L279.4 102.3L287.4 102.3L287.4 103.0Q287.4 104.5 286.8 105.9Q286.2 107.3 285.2 108.3Q284.2 109.3 282.8 109.9Q281.4 110.5 279.8 110.5L279.8 110.5Q278.2 110.5 276.8 109.9Q275.4 109.3 274.4 108.3Q273.3 107.3 272.7 105.9Q272.1 104.5 272.1 103.0L272.1 103.0Q272.1 101.4 272.7 100.0Q273.3 98.7 274.4 97.7Q275.4 96.6 276.8 96.0Q278.2 95.5 279.8 95.5L279.8 95.5Q281.0 95.5 282.1 95.8Q283.2 96.2 284.1 96.8Q285.1 97.4 285.8 98.3Q286.5 99.1 286.9 100.1L286.9 100.1L284.2 100.1Q283.5 99.0 282.3 98.3Q281.2 97.7 279.8 97.7L279.8 97.7Q278.7 97.7 277.8 98.1Q276.8 98.5 276.1 99.2Q275.4 99.9 275.0 100.9Q274.6 101.9 274.6 103.0L274.6 103.0Q274.6 104.1 275.0 105.0Q275.4 106.0 276.1 106.7Q276.8 107.5 277.8 107.9Q278.7 108.3 279.8 108.3L279.8 108.3Q280.7 108.3 281.5 108.0Q282.4 107.7 283.0 107.1Q283.7 106.6 284.2 105.8Q284.6 105.1 284.8 104.2L284.8 104.2L279.4 104.2Z M306.1 110.2L303.4 110.2L302.2 107.3L295.9 107.3L294.7 110.2L292.0 110.2L298.2 95.8L300.0 95.8L306.1 110.2ZM299.1 99.3L296.7 105.3L301.4 105.3L299.1 99.3ZM309.2 110.2L306.7 110.2L306.7 95.8L309.0 95.8L316.7 106.2L316.7 95.8L319.2 95.8L319.2 110.2L316.8 110.2L309.2 99.8L309.2 110.2ZM326.3 110.2L320.9 110.2L320.9 95.8L326.3 95.8Q327.8 95.8 329.1 96.3Q330.4 96.9 331.4 97.9Q332.4 98.9 332.9 100.2Q333.5 101.5 333.5 103.0L333.5 103.0Q333.5 104.5 332.9 105.8Q332.4 107.1 331.4 108.1Q330.4 109.0 329.1 109.6Q327.8 110.2 326.3 110.2L326.3 110.2ZM323.4 108.0L326.2 108.0Q327.2 108.0 328.1 107.6Q329.0 107.2 329.6 106.5Q330.3 105.8 330.7 104.9Q331.1 104.0 331.1 103.0L331.1 103.0Q331.1 101.9 330.7 101.0Q330.3 100.1 329.6 99.4Q329.0 98.8 328.1 98.4Q327.2 98.0 326.2 98.0L326.2 98.0L323.4 98.0L323.4 108.0Z M352.2 110.2L349.5 110.2L348.3 107.3L342.0 107.3L340.8 110.2L338.1 110.2L344.2 95.8L346.0 95.8L352.2 110.2ZM345.1 99.3L342.8 105.3L347.5 105.3L345.1 99.3ZM357.8 95.8L360.0 95.8L353.9 112.2L351.7 112.2L357.8 95.8ZM371.4 105.9L371.4 105.9Q371.4 106.8 371.1 107.6Q370.7 108.4 370.1 109.0Q369.5 109.5 368.7 109.9Q367.9 110.2 367.0 110.2L367.0 110.2L360.6 110.2L360.6 95.8L366.3 95.8Q367.2 95.8 367.9 96.1Q368.7 96.4 369.2 97.0Q369.8 97.5 370.1 98.2Q370.4 99.0 370.4 99.8L370.4 99.8Q370.4 100.6 370.1 101.2Q369.7 101.9 369.1 102.4L369.1 102.4Q370.1 102.8 370.8 103.8Q371.4 104.7 371.4 105.9ZM366.2 98.0L363.1 98.0L363.1 101.5L366.2 101.5Q366.9 101.5 367.4 101.0Q368.0 100.5 368.0 99.7L368.0 99.7Q368.0 99.0 367.4 98.5Q366.9 98.0 366.2 98.0L366.2 98.0ZM363.1 108.0L366.9 108.0Q367.3 108.0 367.7 107.8Q368.0 107.6 368.3 107.3Q368.6 107.1 368.8 106.7Q368.9 106.3 368.9 105.8L368.9 105.8Q368.9 105.4 368.8 105.0Q368.6 104.6 368.3 104.3Q368.0 104.0 367.7 103.9Q367.3 103.7 366.9 103.7L366.9 103.7L363.1 103.7L363.1 108.0Z M382.8 98.0L382.8 110.2L380.4 110.2L380.4 98.0L376.1 98.0L376.1 95.8L387.1 95.8L387.1 98.0L382.8 98.0ZM397.3 110.2L387.8 110.2L387.8 95.8L397.3 95.8L397.3 98.0L390.3 98.0L390.3 101.7L396.2 101.7L396.2 103.9L390.3 103.9L390.3 108.0L397.3 108.0L397.3 110.2ZM398.5 99.6L398.5 99.6Q398.5 98.7 398.9 98.0Q399.3 97.2 399.9 96.7Q400.5 96.1 401.3 95.8Q402.2 95.5 403.1 95.5L403.1 95.5Q404.1 95.5 405.0 95.8Q405.9 96.1 406.6 96.6Q407.2 97.2 407.6 98.0Q408.0 98.8 408.1 99.7L408.1 99.7L405.6 99.7Q405.6 99.3 405.3 98.9Q405.1 98.5 404.8 98.2Q404.4 98.0 404 97.8Q403.6 97.7 403.1 97.7L403.1 97.7Q402.7 97.7 402.3 97.8Q401.9 98.0 401.6 98.2Q401.3 98.5 401.1 98.8Q400.9 99.2 400.9 99.6L400.9 99.6Q400.9 100.0 401.3 100.3Q401.6 100.7 402.1 100.9Q402.6 101.2 403.3 101.4Q403.9 101.6 404.6 101.8L404.6 101.8Q405.5 102.0 406.2 102.3Q406.9 102.7 407.4 103.2Q408.0 103.7 408.3 104.4Q408.6 105.1 408.6 105.9L408.6 105.9Q408.6 106.9 408.1 107.7Q407.7 108.5 407.0 109.1Q406.3 109.8 405.4 110.1Q404.4 110.5 403.4 110.5L403.4 110.5Q402.3 110.5 401.4 110.1Q400.5 109.7 399.7 109.0Q399.0 108.4 398.6 107.5Q398.2 106.6 398.2 105.6L398.2 105.6L400.6 105.6Q400.7 106.1 400.9 106.6Q401.1 107.1 401.4 107.5Q401.8 107.9 402.3 108.1Q402.8 108.3 403.4 108.3L403.4 108.3Q403.9 108.3 404.4 108.1Q405.0 107.9 405.3 107.6Q405.7 107.3 405.9 106.8Q406.2 106.4 406.2 105.9L406.2 105.9Q406.2 104.9 405.3 104.4Q404.4 103.8 402.8 103.4L402.8 103.4Q401.9 103.2 401.1 102.8Q400.3 102.5 399.7 102.0Q399.2 101.5 398.8 100.9Q398.5 100.3 398.5 99.6ZM415.5 98.0L415.5 110.2L413.0 110.2L413.0 98.0L408.8 98.0L408.8 95.8L419.7 95.8L419.7 98.0L415.5 98.0ZM420.4 110.2L420.4 95.8L422.9 95.8L422.9 110.2L420.4 110.2ZM427.1 110.2L424.6 110.2L424.6 95.8L426.9 95.8L434.6 106.2L434.6 95.8L437.1 95.8L437.1 110.2L434.7 110.2L427.1 99.8L427.1 110.2ZM445.6 104.2L445.6 102.3L453.6 102.3L453.6 103.0Q453.6 104.5 453.0 105.9Q452.4 107.3 451.3 108.3Q450.3 109.3 448.9 109.9Q447.5 110.5 445.9 110.5L445.9 110.5Q444.4 110.5 443.0 109.9Q441.6 109.3 440.5 108.3Q439.5 107.3 438.9 105.9Q438.3 104.5 438.3 103.0L438.3 103.0Q438.3 101.4 438.9 100.0Q439.5 98.7 440.5 97.7Q441.6 96.6 443.0 96.0Q444.4 95.5 445.9 95.5L445.9 95.5Q447.1 95.5 448.2 95.8Q449.3 96.2 450.3 96.8Q451.2 97.4 451.9 98.3Q452.6 99.1 453.1 100.1L453.1 100.1L450.3 100.1Q449.6 99.0 448.5 98.3Q447.3 97.7 445.9 97.7L445.9 97.7Q444.9 97.7 443.9 98.1Q443.0 98.5 442.3 99.2Q441.6 99.9 441.1 100.9Q440.7 101.9 440.7 103.0L440.7 103.0Q440.7 104.1 441.1 105.0Q441.6 106.0 442.3 106.7Q443.0 107.5 443.9 107.9Q444.9 108.3 445.9 108.3L445.9 108.3Q446.9 108.3 447.7 108.0Q448.5 107.7 449.2 107.1Q449.8 106.6 450.3 105.8Q450.8 105.1 451.0 104.2L451.0 104.2L445.6 104.2Z " />
    <mask id="satori_om-id-0-1">
        <rect x="45" y="118" width="413" height="110" fill="#fff" />
    </mask>
    <path fill="#e1e7ef" d="M87.5 181.9L105.6 208.2L91.8 208.2L74.8 182.6L62.0 182.6L62.0 208.2L50.2 208.2L50.2 139.8L82.0 139.8Q86.5 139.8 90.5 141.5Q94.4 143.2 97.3 146.1Q100.3 149.1 102 152.9Q103.7 156.7 103.7 161.2L103.7 161.2Q103.7 164.9 102.5 168.3Q101.2 171.7 99.1 174.4Q96.9 177.2 93.9 179.1Q91.0 181.1 87.5 181.9L87.5 181.9ZM62.0 150.3L62.0 172.1L80.7 172.1Q83 172.1 85.0 171.3Q87.1 170.4 88.6 169.0Q90.1 167.5 91.0 165.5Q91.9 163.5 91.9 161.2L91.9 161.2Q91.9 158.9 91.0 156.9Q90.1 154.9 88.6 153.5Q87.1 152.0 85.0 151.1Q83 150.3 80.7 150.3L80.7 150.3L62.0 150.3ZM136.3 155.4L136.3 155.4Q142.1 155.4 147.2 157.6Q152.3 159.7 156.2 163.4Q159.9 167.1 162.1 172.0Q164.3 177.0 164.3 182.6L164.3 182.6Q164.3 188.2 162.1 193.1Q159.9 198.1 156.2 201.8Q152.3 205.5 147.2 207.6Q142.1 209.8 136.3 209.8L136.3 209.8Q130.5 209.8 125.4 207.6Q120.2 205.5 116.4 201.8Q112.6 198.1 110.5 193.1Q108.3 188.2 108.3 182.6L108.3 182.6Q108.3 177.0 110.5 172.0Q112.6 167.1 116.4 163.4Q120.2 159.7 125.4 157.6Q130.5 155.4 136.3 155.4ZM136.3 199.5L136.3 199.5Q139.7 199.5 142.8 198.2Q145.8 196.8 148.1 194.6Q150.4 192.3 151.6 189.2Q152.9 186.1 152.9 182.6L152.9 182.6Q152.9 179.1 151.6 176.0Q150.4 172.9 148.1 170.6Q145.8 168.3 142.8 167.0Q139.7 165.7 136.3 165.7L136.3 165.7Q132.9 165.7 129.8 167.0Q126.8 168.3 124.5 170.6Q122.2 172.9 121.0 176.0Q119.7 179.1 119.7 182.6L119.7 182.6Q119.7 186.1 121.0 189.2Q122.2 192.3 124.5 194.6Q126.8 196.8 129.8 198.2Q132.9 199.5 136.3 199.5ZM254.4 179.2L254.4 208.2L243.0 208.2L243.0 179.0Q243.0 176.2 242.0 173.8Q241.1 171.4 239.4 169.6Q237.7 167.8 235.4 166.7Q233.2 165.7 230.6 165.7L230.6 165.7Q228.1 165.7 225.8 166.7Q223.6 167.8 221.9 169.6Q220.2 171.4 219.2 173.8Q218.3 176.2 218.3 179.0L218.3 179.0L218.3 208.2L206.9 208.2L206.9 179.0Q206.9 176.2 205.9 173.8Q205.0 171.4 203.3 169.6Q201.6 167.8 199.3 166.7Q197.1 165.7 194.5 165.7L194.5 165.7Q192.0 165.7 189.7 166.7Q187.5 167.8 185.8 169.6Q184.1 171.4 183.1 173.8Q182.2 176.2 182.2 179.0L182.2 179.0L182.2 208.2L170.8 208.2L170.8 179.2Q170.8 174.2 172.6 169.9Q174.5 165.6 177.7 162.4Q180.9 159.1 185.3 157.3Q189.6 155.4 194.5 155.4L194.5 155.4Q199.9 155.4 204.6 157.7Q209.3 160.0 212.6 163.9L212.6 163.9Q215.8 160.0 220.5 157.7Q225.2 155.4 230.6 155.4L230.6 155.4Q235.6 155.4 239.9 157.3Q244.2 159.1 247.4 162.4Q250.7 165.6 252.5 169.9Q254.4 174.2 254.4 179.2L254.4 179.2ZM289.9 155.4L289.9 155.4Q295.7 155.4 300.8 157.6Q305.9 159.7 309.7 163.4Q313.5 167.1 315.7 172.0Q317.8 177.0 317.8 182.6L317.8 182.6Q317.8 188.2 315.7 193.1Q313.5 198.1 309.7 201.8Q305.9 205.5 300.8 207.6Q295.7 209.8 289.9 209.8L289.9 209.8Q285.0 209.8 280.7 207.8Q276.4 205.8 273.4 202.4L273.4 202.4L273.4 225.3L262.0 225.3L262.0 182.6Q262.0 177.0 264.2 172.0Q266.4 167.1 270.2 163.4Q273.9 159.7 279.0 157.6Q284.1 155.4 289.9 155.4ZM289.7 199.5L289.7 199.5Q293.1 199.5 296.2 198.2Q299.2 196.8 301.5 194.6Q303.8 192.3 305.1 189.2Q306.4 186.1 306.4 182.6L306.4 182.6Q306.4 179.1 305.1 176.0Q303.8 172.9 301.5 170.6Q299.2 168.3 296.2 167.0Q293.1 165.7 289.7 165.7L289.7 165.7Q286.3 165.7 283.3 167.0Q280.2 168.3 277.9 170.6Q275.7 172.9 274.3 176.0Q273 179.1 273 182.6L273 182.6Q273 186.1 274.3 189.2Q275.7 192.3 277.9 194.6Q280.2 196.8 283.3 198.2Q286.3 199.5 289.7 199.5ZM350.7 199.5L350.7 209.8L349.3 209.8Q344.2 209.8 339.6 207.8Q335.1 205.9 331.8 202.5Q328.5 199.2 326.5 194.7Q324.6 190.2 324.6 185.1L324.6 185.1L324.6 139.8L336.0 139.8L336.0 156.9L350.7 156.9L350.7 166.8L336.0 166.8L336.0 185.2Q336.0 188.2 337.1 190.8Q338.3 193.4 340.2 195.3Q342.1 197.2 344.7 198.4Q347.3 199.5 350.2 199.5L350.2 199.5L350.7 199.5ZM363.3 209.7L363.3 209.7Q360.4 209.7 358.4 207.7Q356.4 205.7 356.4 202.8L356.4 202.8Q356.4 200.0 358.4 198.0Q360.4 196.0 363.3 196.0L363.3 196.0Q366.1 196.0 368.1 198.0Q370.1 200.0 370.1 202.8L370.1 202.8Q370.1 205.7 368.1 207.7Q366.1 209.7 363.3 209.7ZM401.2 155.4L401.2 155.4Q407.0 155.4 412.0 157.6Q417.1 159.7 420.9 163.4Q424.7 167.1 426.9 172.0Q429.1 177.0 429.1 182.6L429.1 182.6L429.1 208.2L418.3 208.2L418.3 201.4Q415.2 205.3 410.8 207.5Q406.4 209.8 401.2 209.8L401.2 209.8Q395.4 209.8 390.3 207.6Q385.2 205.5 381.4 201.8Q377.6 198.1 375.4 193.1Q373.2 188.2 373.2 182.6L373.2 182.6Q373.2 177.0 375.4 172.0Q377.6 167.1 381.4 163.4Q385.2 159.7 390.3 157.6Q395.4 155.4 401.2 155.4ZM401.3 199.5L401.3 199.5Q404.8 199.5 407.8 198.2Q410.8 196.8 413.1 194.6Q415.4 192.3 416.7 189.2Q418.1 186.1 418.1 182.6L418.1 182.6Q418.1 179.1 416.7 176.0Q415.4 172.9 413.1 170.6Q410.8 168.3 407.8 167.0Q404.8 165.7 401.3 165.7L401.3 165.7Q397.9 165.7 394.9 167.0Q391.8 168.3 389.6 170.6Q387.3 172.9 386.0 176.0Q384.6 179.1 384.6 182.6L384.6 182.6Q384.6 186.1 386.0 189.2Q387.3 192.3 389.6 194.6Q391.8 196.8 394.9 198.2Q397.9 199.5 401.3 199.5ZM451.1 144.4L451.1 144.4Q451.1 147.2 449.1 149.2Q447.1 151.2 444.3 151.2L444.3 151.2Q441.4 151.2 439.4 149.2Q437.4 147.2 437.4 144.4L437.4 144.4Q437.4 141.5 439.4 139.6Q441.4 137.6 444.3 137.6L444.3 137.6Q447.1 137.6 449.1 139.6Q451.1 141.5 451.1 144.4ZM450.0 156.9L450.0 208.2L438.6 208.2L438.6 156.9L450.0 156.9Z " />
    <mask id="satori_om-id-1">
        <rect x="48" y="322" width="904" height="30" fill="#fff" />
    </mask>
    <mask id="satori_om-id-1-0">
        <rect x="48" y="337" width="0" height="0" fill="#fff" />
    </mask>
    <mask id="satori_om-id-1-1">
        <rect x="649" y="322" width="303" height="30" fill="#fff" />
    </mask>
    <clipPath id="satori_cp-id-1-1-0">
        <rect x="649" y="325" width="24" height="24" />
    </clipPath>
    <mask id="satori_om-id-1-1-0">
        <rect x="649" y="325" width="24" height="24" fill="#fff" />
    </mask>
    <image x="649" y="325" width="24" height="24" href="data:image/svg+xml;utf8,%3Csvg  xmlns=%22http://www.w3.org/2000/svg%22 fill=%22none%22 stroke=%22%23e1e7ef%22 stroke-width=%222%22 stroke-linecap=%22round%22 stroke-linejoin=%22round%22 width=%2224%22 height=%2224%22 viewBox=%220 0 24 24%22%3E%3Cpath d=%22M19 14c1.49-1.46 3-3.21 3-5.5A5.5 5.5 0 0 0 16.5 3c-1.76 0-3 .5-4.5 2-1.5-1.5-2.74-2-4.5-2A5.5 5.5 0 0 0 2 8.5c0 2.3 1.5 4.05 3 5.5l7 7Z%22%3E%3C/path%3E%3C/svg%3E" preserveAspectRatio="none" clip-path="url(#satori_cp-id-1-1-0)" mask="url(#satori_om-id-1-1-0)" />
    <mask id="satori_om-id-1-1-0-0">
        <rect x="649" y="325" width="0" height="24" fill="#fff" />
    </mask>
    <mask id="satori_om-id-1-1-1">
        <rect x="681" y="322" width="271" height="30" fill="#fff" />
    </mask>
    <path fill="#e1e7ef" d="M687.4 333.1L687.4 333.1Q688.7 333.1 689.7 333.5Q690.8 334.0 691.6 334.7Q692.4 335.5 692.9 336.6Q693.3 337.6 693.3 338.8L693.3 338.8L693.3 342.8Q693.3 343.9 692.9 345.0Q692.4 346.0 691.6 346.8Q690.8 347.6 689.7 348.0Q688.7 348.5 687.4 348.5L687.4 348.5Q686.5 348.5 685.6 348.2Q684.7 347.9 683.9 347.4Q683.2 346.8 682.7 346.1Q682.1 345.4 681.8 344.5L681.8 344.5L684.4 344.5Q684.9 345.3 685.7 345.8Q686.5 346.3 687.4 346.3L687.4 346.3Q688.1 346.3 688.8 346.1Q689.4 345.8 689.9 345.3Q690.3 344.9 690.6 344.3Q690.9 343.7 690.9 343.0L690.9 343.0Q690.3 343.7 689.4 344.1Q688.5 344.5 687.4 344.5L687.4 344.5Q686.2 344.5 685.1 344.0Q684.1 343.6 683.3 342.8Q682.5 342.0 682.0 341.0Q681.6 340.0 681.6 338.8L681.6 338.8Q681.6 337.6 682.0 336.6Q682.5 335.5 683.3 334.7Q684.1 334.0 685.1 333.5Q686.2 333.1 687.4 333.1ZM687.5 342.3L687.5 342.3Q688.2 342.3 688.8 342.1Q689.5 341.8 690.0 341.3Q690.4 340.8 690.7 340.2Q691 339.5 691 338.8L691 338.8Q691 338.0 690.7 337.4Q690.4 336.7 690.0 336.3Q689.5 335.8 688.8 335.5Q688.2 335.2 687.5 335.2L687.5 335.2Q686.8 335.2 686.1 335.5Q685.5 335.8 685 336.3Q684.5 336.7 684.2 337.4Q684.0 338.0 684.0 338.8L684.0 338.8Q684.0 339.5 684.2 340.2Q684.5 340.8 685 341.3Q685.5 341.8 686.1 342.1Q686.8 342.3 687.5 342.3ZM698.0 330.7L698.0 330.7Q698.0 331.3 697.5 331.8Q697.1 332.2 696.5 332.2L696.5 332.2Q695.9 332.2 695.5 331.8Q695.1 331.3 695.1 330.7L695.1 330.7Q695.1 330.1 695.5 329.7Q695.9 329.3 696.5 329.3L696.5 329.3Q697.1 329.3 697.5 329.7Q698.0 330.1 698.0 330.7ZM697.7 333.4L697.7 344.2L695.3 344.2L695.3 333.4L697.7 333.4ZM705.3 342.3L705.3 344.5L705.0 344.5Q703.9 344.5 702.9 344.1Q702 343.7 701.3 343.0Q700.6 342.3 700.2 341.3Q699.8 340.4 699.8 339.3L699.8 339.3L699.8 329.8L702.2 329.8L702.2 333.4L705.3 333.4L705.3 335.5L702.2 335.5L702.2 339.3Q702.2 340.0 702.4 340.5Q702.7 341.1 703.1 341.5Q703.5 341.9 704.0 342.1Q704.6 342.3 705.2 342.3L705.2 342.3L705.3 342.3ZM717.7 338.4L717.7 344.2L715.3 344.2L715.3 338.2Q715.3 337.6 715.1 337.1Q714.9 336.5 714.5 336.1Q714.1 335.7 713.5 335.5Q713.0 335.2 712.4 335.2L712.4 335.2Q711.8 335.2 711.3 335.5Q710.7 335.7 710.3 336.1Q709.9 336.5 709.7 337.1Q709.5 337.6 709.5 338.2L709.5 338.2L709.5 344.2L707.1 344.2L707.1 329.8L709.5 329.8L709.5 334.2Q710.1 333.7 710.8 333.4Q711.6 333.1 712.4 333.1L712.4 333.1Q713.5 333.1 714.5 333.5Q715.4 333.9 716.2 334.6Q716.9 335.3 717.3 336.3Q717.7 337.3 717.7 338.4L717.7 338.4ZM721.6 333.4L721.6 339.3Q721.6 339.9 721.8 340.5Q722.1 341.0 722.5 341.4Q722.9 341.9 723.4 342.1Q723.9 342.3 724.5 342.3L724.5 342.3Q725.1 342.3 725.6 342.1Q726.2 341.9 726.6 341.4Q727.0 341.0 727.2 340.5Q727.4 339.9 727.4 339.3L727.4 339.3L727.4 333.4L729.8 333.4L729.8 339.2Q729.8 340.3 729.4 341.3Q729.0 342.2 728.3 342.9Q727.5 343.7 726.6 344.1Q725.6 344.5 724.5 344.5L724.5 344.5Q723.4 344.5 722.5 344.1Q721.5 343.7 720.8 342.9Q720.1 342.2 719.6 341.3Q719.2 340.3 719.2 339.2L719.2 339.2L719.2 333.4L721.6 333.4ZM737.6 333.1L737.6 333.1Q738.8 333.1 739.9 333.5Q741.0 334.0 741.8 334.7Q742.6 335.5 743.0 336.6Q743.5 337.6 743.5 338.8L743.5 338.8Q743.5 340.0 743.0 341.0Q742.6 342.0 741.8 342.8Q741.0 343.6 739.9 344.0Q738.8 344.5 737.6 344.5L737.6 344.5Q736.5 344.5 735.6 344.0Q734.6 343.6 734.0 342.8L734.0 342.8L734.0 344.2L731.7 344.2L731.7 329.8L734.1 329.8L734.1 334.5Q734.8 333.9 735.7 333.5Q736.6 333.1 737.6 333.1ZM737.6 342.3L737.6 342.3Q738.3 342.3 738.9 342.1Q739.6 341.8 740.0 341.3Q740.5 340.8 740.8 340.2Q741.1 339.5 741.1 338.8L741.1 338.8Q741.1 338.0 740.8 337.4Q740.5 336.7 740.0 336.3Q739.6 335.8 738.9 335.5Q738.3 335.2 737.6 335.2L737.6 335.2Q736.8 335.2 736.2 335.5Q735.6 335.8 735.1 336.3Q734.6 336.7 734.3 337.4Q734.0 338.0 734.0 338.8L734.0 338.8Q734.0 339.5 734.3 340.2Q734.6 340.8 735.1 341.3Q735.6 341.8 736.2 342.1Q736.8 342.3 737.6 342.3ZM745.6 344.5L745.6 344.5Q745.0 344.5 744.6 344.1Q744.1 343.6 744.1 343.0L744.1 343.0Q744.1 342.4 744.6 342.0Q745.0 341.6 745.6 341.6L745.6 341.6Q746.2 341.6 746.6 342.0Q747.0 342.4 747.0 343.0L747.0 343.0Q747.0 343.6 746.6 344.1Q746.2 344.5 745.6 344.5ZM753.6 342.3L753.6 342.3Q754.6 342.3 755.3 341.9Q756.1 341.4 756.6 340.6L756.6 340.6L759.2 340.6Q758.9 341.5 758.3 342.2Q757.8 342.9 757.1 343.4Q756.3 343.9 755.5 344.2Q754.6 344.5 753.6 344.5L753.6 344.5Q752.4 344.5 751.3 344.0Q750.2 343.6 749.4 342.8Q748.6 342.0 748.1 341.0Q747.7 340.0 747.7 338.8L747.7 338.8Q747.7 337.6 748.1 336.6Q748.6 335.5 749.4 334.7Q750.2 334.0 751.3 333.5Q752.4 333.1 753.6 333.1L753.6 333.1Q754.6 333.1 755.5 333.3Q756.3 333.6 757.1 334.2Q757.8 334.7 758.4 335.4Q758.9 336.1 759.2 337.0L759.2 337.0L756.6 337.0Q756.2 336.2 755.4 335.7Q754.6 335.2 753.6 335.2L753.6 335.2Q752.9 335.2 752.2 335.5Q751.6 335.8 751.1 336.3Q750.6 336.7 750.4 337.4Q750.1 338.0 750.1 338.8L750.1 338.8Q750.1 339.5 750.4 340.2Q750.6 340.8 751.1 341.3Q751.6 341.8 752.2 342.1Q752.9 342.3 753.6 342.3ZM766.2 333.1L766.2 333.1Q767.4 333.1 768.5 333.5Q769.5 334.0 770.3 334.7Q771.1 335.5 771.6 336.6Q772.1 337.6 772.1 338.8L772.1 338.8Q772.1 340.0 771.6 341.0Q771.1 342.0 770.3 342.8Q769.5 343.6 768.5 344.0Q767.4 344.5 766.2 344.5L766.2 344.5Q764.9 344.5 763.9 344.0Q762.8 343.6 762.0 342.8Q761.2 342.0 760.7 341.0Q760.3 340.0 760.3 338.8L760.3 338.8Q760.3 337.6 760.7 336.6Q761.2 335.5 762.0 334.7Q762.8 334.0 763.9 333.5Q764.9 333.1 766.2 333.1ZM766.2 342.3L766.2 342.3Q766.9 342.3 767.5 342.1Q768.2 341.8 768.6 341.3Q769.1 340.8 769.4 340.2Q769.7 339.5 769.7 338.8L769.7 338.8Q769.7 338.0 769.4 337.4Q769.1 336.7 768.6 336.3Q768.2 335.8 767.5 335.5Q766.9 335.2 766.2 335.2L766.2 335.2Q765.4 335.2 764.8 335.5Q764.2 335.8 763.7 336.3Q763.2 336.7 762.9 337.4Q762.7 338.0 762.7 338.8L762.7 338.8Q762.7 339.5 762.9 340.2Q763.2 340.8 763.7 341.3Q764.2 341.8 764.8 342.1Q765.4 342.3 766.2 342.3ZM791.0 338.1L791.0 344.2L788.6 344.2L788.6 338.0Q788.6 337.4 788.4 336.9Q788.2 336.4 787.9 336.0Q787.5 335.7 787.0 335.4Q786.6 335.2 786.0 335.2L786.0 335.2Q785.5 335.2 785.0 335.4Q784.5 335.7 784.2 336.0Q783.8 336.4 783.6 336.9Q783.4 337.4 783.4 338.0L783.4 338.0L783.4 344.2L781.0 344.2L781.0 338.0Q781.0 337.4 780.8 336.9Q780.6 336.4 780.3 336.0Q779.9 335.7 779.4 335.4Q779.0 335.2 778.4 335.2L778.4 335.2Q777.9 335.2 777.4 335.4Q776.9 335.7 776.6 336.0Q776.2 336.4 776.0 336.9Q775.8 337.4 775.8 338.0L775.8 338.0L775.8 344.2L773.4 344.2L773.4 338.1Q773.4 337.0 773.8 336.1Q774.2 335.2 774.9 334.5Q775.6 333.8 776.5 333.4Q777.4 333.1 778.4 333.1L778.4 333.1Q779.6 333.1 780.5 333.5Q781.5 334.0 782.2 334.8L782.2 334.8Q782.9 334.0 783.9 333.5Q784.9 333.1 786.0 333.1L786.0 333.1Q787.1 333.1 788.0 333.4Q788.9 333.8 789.6 334.5Q790.2 335.2 790.6 336.1Q791.0 337.0 791.0 338.1L791.0 338.1ZM797.9 329.8L800.1 329.8L794.0 346.2L791.8 346.2L797.9 329.8ZM806.3 333.1L806.3 335.2Q805.7 335.2 805.1 335.5Q804.6 335.7 804.2 336.1Q803.8 336.5 803.6 337.0Q803.3 337.6 803.3 338.2L803.3 338.2L803.3 344.2L800.9 344.2L800.9 338.4Q800.9 337.3 801.3 336.3Q801.8 335.3 802.5 334.6Q803.2 333.9 804.2 333.5Q805.1 333.1 806.2 333.1L806.2 333.1L806.3 333.1ZM813.2 333.1L813.2 333.1Q814.4 333.1 815.5 333.5Q816.6 334.0 817.4 334.7Q818.2 335.5 818.6 336.6Q819.1 337.6 819.1 338.8L819.1 338.8Q819.1 340.0 818.6 341.0Q818.2 342.0 817.4 342.8Q816.6 343.6 815.5 344.0Q814.4 344.5 813.2 344.5L813.2 344.5Q812.0 344.5 810.9 344.0Q809.8 343.6 809.0 342.8Q808.2 342.0 807.7 341.0Q807.3 340.0 807.3 338.8L807.3 338.8Q807.3 337.6 807.7 336.6Q808.2 335.5 809.0 334.7Q809.8 334.0 810.9 333.5Q812.0 333.1 813.2 333.1ZM813.2 342.3L813.2 342.3Q813.9 342.3 814.5 342.1Q815.2 341.8 815.7 341.3Q816.1 340.8 816.4 340.2Q816.7 339.5 816.7 338.8L816.7 338.8Q816.7 338.0 816.4 337.4Q816.1 336.7 815.7 336.3Q815.2 335.8 814.5 335.5Q813.9 335.2 813.2 335.2L813.2 335.2Q812.5 335.2 811.8 335.5Q811.2 335.8 810.7 336.3Q810.2 336.7 809.9 337.4Q809.7 338.0 809.7 338.8L809.7 338.8Q809.7 339.5 809.9 340.2Q810.2 340.8 810.7 341.3Q811.2 341.8 811.8 342.1Q812.5 342.3 813.2 342.3ZM838.0 338.1L838.0 344.2L835.6 344.2L835.6 338.0Q835.6 337.4 835.4 336.9Q835.2 336.4 834.9 336.0Q834.5 335.7 834.0 335.4Q833.6 335.2 833.0 335.2L833.0 335.2Q832.5 335.2 832.0 335.4Q831.6 335.7 831.2 336.0Q830.8 336.4 830.6 336.9Q830.4 337.4 830.4 338.0L830.4 338.0L830.4 344.2L828.0 344.2L828.0 338.0Q828.0 337.4 827.8 336.9Q827.6 336.4 827.3 336.0Q826.9 335.7 826.4 335.4Q826.0 335.2 825.4 335.2L825.4 335.2Q824.9 335.2 824.4 335.4Q824.0 335.7 823.6 336.0Q823.2 336.4 823.0 336.9Q822.8 337.4 822.8 338.0L822.8 338.0L822.8 344.2L820.4 344.2L820.4 338.1Q820.4 337.0 820.8 336.1Q821.2 335.2 821.9 334.5Q822.6 333.8 823.5 333.4Q824.4 333.1 825.4 333.1L825.4 333.1Q826.6 333.1 827.6 333.5Q828.6 334.0 829.2 334.8L829.2 334.8Q829.9 334.0 830.9 333.5Q831.9 333.1 833.0 333.1L833.0 333.1Q834.1 333.1 835.0 333.4Q835.9 333.8 836.6 334.5Q837.3 335.2 837.6 336.1Q838.0 337.0 838.0 338.1L838.0 338.1ZM845.5 333.1L845.5 333.1Q846.7 333.1 847.8 333.5Q848.9 334.0 849.7 334.7Q850.5 335.5 850.9 336.6Q851.4 337.6 851.4 338.8L851.4 338.8Q851.4 340.0 850.9 341.0Q850.5 342.0 849.7 342.8Q848.9 343.6 847.8 344.0Q846.7 344.5 845.5 344.5L845.5 344.5Q844.5 344.5 843.6 344.1Q842.7 343.7 842.0 343.0L842.0 343.0L842.0 347.8L839.6 347.8L839.6 338.8Q839.6 337.6 840.1 336.6Q840.6 335.5 841.4 334.7Q842.2 334.0 843.2 333.5Q844.3 333.1 845.5 333.1ZM845.5 342.3L845.5 342.3Q846.2 342.3 846.8 342.1Q847.5 341.8 848.0 341.3Q848.4 340.8 848.7 340.2Q849.0 339.5 849.0 338.8L849.0 338.8Q849.0 338.0 848.7 337.4Q848.4 336.7 848.0 336.3Q847.5 335.8 846.8 335.5Q846.2 335.2 845.5 335.2L845.5 335.2Q844.8 335.2 844.1 335.5Q843.5 335.8 843.0 336.3Q842.5 336.7 842.2 337.4Q842.0 338.0 842.0 338.8L842.0 338.8Q842.0 339.5 842.2 340.2Q842.5 340.8 843.0 341.3Q843.5 341.8 844.1 342.1Q844.8 342.3 845.5 342.3ZM858.3 342.3L858.3 344.5L858.0 344.5Q856.9 344.5 856.0 344.1Q855.0 343.7 854.3 343.0Q853.6 342.3 853.2 341.3Q852.8 340.4 852.8 339.3L852.8 339.3L852.8 329.8L855.2 329.8L855.2 333.4L858.3 333.4L858.3 335.5L855.2 335.5L855.2 339.3Q855.2 340.0 855.5 340.5Q855.7 341.1 856.1 341.5Q856.5 341.9 857.0 342.1Q857.6 342.3 858.2 342.3L858.2 342.3L858.3 342.3ZM859.5 339.2L859.5 337.3L865.3 337.3L865.3 339.2L859.5 339.2ZM872.6 333.1L872.6 333.1Q873.8 333.1 874.8 333.5Q875.9 334.0 876.7 334.7Q877.5 335.5 878.0 336.6Q878.4 337.6 878.4 338.8L878.4 338.8L878.4 344.2L876.2 344.2L876.2 342.7Q875.5 343.6 874.6 344.0Q873.7 344.5 872.6 344.5L872.6 344.5Q871.3 344.5 870.3 344.0Q869.2 343.6 868.4 342.8Q867.6 342.0 867.1 341.0Q866.7 340.0 866.7 338.8L866.7 338.8Q866.7 337.6 867.1 336.6Q867.6 335.5 868.4 334.7Q869.2 334.0 870.3 333.5Q871.3 333.1 872.6 333.1ZM872.6 342.3L872.6 342.3Q873.3 342.3 874.0 342.1Q874.6 341.8 875.1 341.3Q875.6 340.8 875.8 340.2Q876.1 339.5 876.1 338.8L876.1 338.8Q876.1 338.0 875.8 337.4Q875.6 336.7 875.1 336.3Q874.6 335.8 874.0 335.5Q873.3 335.2 872.6 335.2L872.6 335.2Q871.9 335.2 871.2 335.5Q870.6 335.8 870.1 336.3Q869.6 336.7 869.4 337.4Q869.1 338.0 869.1 338.8L869.1 338.8Q869.1 339.5 869.4 340.2Q869.6 340.8 870.1 341.3Q870.6 341.8 871.2 342.1Q871.9 342.3 872.6 342.3ZM883.1 330.7L883.1 330.7Q883.1 331.3 882.7 331.8Q882.2 332.2 881.6 332.2L881.6 332.2Q881.0 332.2 880.6 331.8Q880.2 331.3 880.2 330.7L880.2 330.7Q880.2 330.1 880.6 329.7Q881.0 329.3 881.6 329.3L881.6 329.3Q882.2 329.3 882.7 329.7Q883.1 330.1 883.1 330.7ZM882.8 333.4L882.8 344.2L880.4 344.2L880.4 333.4L882.8 333.4ZM890.1 329.8L892.3 329.8L886.2 346.2L884.0 346.2L890.1 329.8ZM898.5 333.1L898.5 335.2Q897.9 335.2 897.4 335.5Q896.8 335.7 896.4 336.1Q896.0 336.5 895.8 337.0Q895.5 337.6 895.5 338.2L895.5 338.2L895.5 344.2L893.1 344.2L893.1 338.4Q893.1 337.3 893.6 336.3Q894.0 335.3 894.7 334.6Q895.4 333.9 896.4 333.5Q897.4 333.1 898.5 333.1L898.5 333.1L898.5 333.1ZM905.4 333.1L905.4 333.1Q906.6 333.1 907.7 333.5Q908.8 334.0 909.6 334.7Q910.4 335.5 910.8 336.6Q911.3 337.6 911.3 338.8L911.3 338.8Q911.3 340.0 910.8 341.0Q910.4 342.0 909.6 342.8Q908.8 343.6 907.7 344.0Q906.6 344.5 905.4 344.5L905.4 344.5Q904.2 344.5 903.1 344.0Q902.0 343.6 901.2 342.8Q900.4 342.0 900.0 341.0Q899.5 340.0 899.5 338.8L899.5 338.8Q899.5 337.6 900.0 336.6Q900.4 335.5 901.2 334.7Q902.0 334.0 903.1 333.5Q904.2 333.1 905.4 333.1ZM905.4 342.3L905.4 342.3Q906.1 342.3 906.8 342.1Q907.4 341.8 907.9 341.3Q908.4 340.8 908.6 340.2Q908.9 339.5 908.9 338.8L908.9 338.8Q908.9 338.0 908.6 337.4Q908.4 336.7 907.9 336.3Q907.4 335.8 906.8 335.5Q906.1 335.2 905.4 335.2L905.4 335.2Q904.7 335.2 904.0 335.5Q903.4 335.8 902.9 336.3Q902.4 336.7 902.2 337.4Q901.9 338.0 901.9 338.8L901.9 338.8Q901.9 339.5 902.2 340.2Q902.4 340.8 902.9 341.3Q903.4 341.8 904.0 342.1Q904.7 342.3 905.4 342.3ZM930.3 338.1L930.3 344.2L927.9 344.2L927.9 338.0Q927.9 337.4 927.7 336.9Q927.5 336.4 927.1 336.0Q926.7 335.7 926.3 335.4Q925.8 335.2 925.3 335.2L925.3 335.2Q924.7 335.2 924.2 335.4Q923.8 335.7 923.4 336.0Q923.1 336.4 922.9 336.9Q922.7 337.4 922.7 338.0L922.7 338.0L922.7 344.2L920.3 344.2L920.3 338.0Q920.3 337.4 920.1 336.9Q919.9 336.4 919.5 336.0Q919.1 335.7 918.7 335.4Q918.2 335.2 917.7 335.2L917.7 335.2Q917.1 335.2 916.6 335.4Q916.2 335.7 915.8 336.0Q915.5 336.4 915.3 336.9Q915.1 337.4 915.1 338.0L915.1 338.0L915.1 344.2L912.7 344.2L912.7 338.1Q912.7 337.0 913.0 336.1Q913.4 335.2 914.1 334.5Q914.8 333.8 915.7 333.4Q916.6 333.1 917.7 333.1L917.7 333.1Q918.8 333.1 919.8 333.5Q920.8 334.0 921.5 334.8L921.5 334.8Q922.1 334.0 923.1 333.5Q924.1 333.1 925.3 333.1L925.3 333.1Q926.3 333.1 927.2 333.4Q928.1 333.8 928.8 334.5Q929.5 335.2 929.9 336.1Q930.3 337.0 930.3 338.1L930.3 338.1ZM937.7 333.1L937.7 333.1Q939.0 333.1 940.0 333.5Q941.1 334.0 941.9 334.7Q942.7 335.5 943.2 336.6Q943.6 337.6 943.6 338.8L943.6 338.8Q943.6 340.0 943.2 341.0Q942.7 342.0 941.9 342.8Q941.1 343.6 940.0 344.0Q939.0 344.5 937.7 344.5L937.7 344.5Q936.7 344.5 935.8 344.1Q934.9 343.7 934.3 343.0L934.3 343.0L934.3 347.8L931.9 347.8L931.9 338.8Q931.9 337.6 932.3 336.6Q932.8 335.5 933.6 334.7Q934.4 334.0 935.4 333.5Q936.5 333.1 937.7 333.1ZM937.7 342.3L937.7 342.3Q938.4 342.3 939.1 342.1Q939.7 341.8 940.2 341.3Q940.7 340.8 940.9 340.2Q941.2 339.5 941.2 338.8L941.2 338.8Q941.2 338.0 940.9 337.4Q940.7 336.7 940.2 336.3Q939.7 335.8 939.1 335.5Q938.4 335.2 937.7 335.2L937.7 335.2Q937.0 335.2 936.3 335.5Q935.7 335.8 935.2 336.3Q934.7 336.7 934.5 337.4Q934.2 338.0 934.2 338.8L934.2 338.8Q934.2 339.5 934.5 340.2Q934.7 340.8 935.2 341.3Q935.7 341.8 936.3 342.1Q937.0 342.3 937.7 342.3ZM950.5 342.3L950.5 344.5L950.2 344.5Q949.2 344.5 948.2 344.1Q947.3 343.7 946.6 343.0Q945.9 342.3 945.4 341.3Q945.0 340.4 945.0 339.3L945.0 339.3L945.0 329.8L947.4 329.8L947.4 333.4L950.5 333.4L950.5 335.5L947.4 335.5L947.4 339.3Q947.4 340.0 947.7 340.5Q947.9 341.1 948.3 341.5Q948.7 341.9 949.3 342.1Q949.8 342.3 950.4 342.3L950.4 342.3L950.5 342.3Z " />
</svg>